<svg width="250" xmlns="http://www.w3.org/2000/svg" height="250" id="screenshot-72c99f0e-8294-80cf-8005-d6b29ee98f79" viewBox="0 0 250 250" xmlns:xlink="http://www.w3.org/1999/xlink" fill="none" version="1.1"><g id="shape-72c99f0e-8294-80cf-8005-d6b29ee98f79"><defs><clipPath id="frame-clip-72c99f0e-8294-80cf-8005-d6b29ee98f79-render-1" class="frame-clip frame-clip-def"><rect rx="0" ry="0" x="0" y="0" width="250" height="250" transform="matrix(1.000000, 0.000000, 0.000000, 1.000000, 0.000000, 0.000000)"/></clipPath></defs><g><g><g clip-path="url(#frame-clip-72c99f0e-8294-80cf-8005-d6b29ee98f79-render-1)" fill="none"><g class="fills" id="fills-72c99f0e-8294-80cf-8005-d6b29ee98f79"><rect width="250" height="250" class="frame-background" x="0" transform="matrix(1.000000, 0.000000, 0.000000, 1.000000, 0.000000, 0.000000)" style="fill: rgb(255, 255, 255); fill-opacity: 1;" ry="0" rx="0" y="0"/></g><g class="frame-children"><g id="shape-2c407c4f-2830-80ed-8005-d7076799af73" width="160" height="160" rx="0" ry="0" style="fill: rgb(0, 0, 0);"><g id="shape-2c407c4f-2830-80ed-8005-d70767a25bef" style="display: none;"><g class="fills" id="fills-2c407c4f-2830-80ed-8005-d70767a25bef"><rect width="150" height="150" x="50" transform="matrix(1.000000, 0.000000, 0.000000, 1.000000, 0.000000, 0.000000)" style="fill: rgb(43, 146, 224); fill-opacity: 1;" ry="0" fill="none" rx="0" y="50"/></g></g><g id="shape-2c407c4f-2830-80ed-8005-d70767a4f44e"><g class="fills" id="fills-2c407c4f-2830-80ed-8005-d70767a4f44e"><path d="M125.000,50.000L189.952,87.500L189.952,162.500L125.000,200.000L60.048,162.500L60.048,87.500Z" style="fill: rgb(43, 146, 224); fill-opacity: 1;"/></g></g></g><g id="shape-2c407c4f-2830-80ed-8005-d70b10f920e5" width="160" height="160" rx="0" ry="0" style="fill: rgb(0, 0, 0);"><g id="shape-2c407c4f-2830-80ed-8005-d70b10f920e6" style="display: none;"><g class="fills" id="fills-2c407c4f-2830-80ed-8005-d70b10f920e6"><rect width="130" height="75" x="60" transform="matrix(1.000000, 0.000000, 0.000000, 1.000000, 0.000000, 0.000000)" style="fill: rgb(225, 122, 42); fill-opacity: 1;" ry="0" fill="none" rx="0" y="125"/></g></g><g id="shape-2c407c4f-2830-80ed-8005-d70b10f920e7"><g class="fills" id="fills-2c407c4f-2830-80ed-8005-d70b10f920e7"><path d="M125.000,125.000L190.000,162.500L125.000,200.000L60.000,162.500Z" style="fill: rgb(225, 122, 42); fill-opacity: 1;"/></g></g></g><g id="shape-2c407c4f-2830-80ed-8005-d70d377092c9" width="150" height="150" rx="0" ry="0" style="fill: rgb(0, 0, 0);"><g id="shape-2c407c4f-2830-80ed-8005-d70d3770ceed" style="display: none;"><g class="fills" id="fills-2c407c4f-2830-80ed-8005-d70d3770ceed"><rect width="129.99999999999991" height="75.00000000000017" x="92.4759526419165" transform="matrix(0.500000, 0.866025, -0.866025, 0.500000, 170.702644, -83.282350)" style="fill: rgb(49, 222, 185); fill-opacity: 1;" ry="0" fill="none" rx="0" y="68.69165124598845"/></g></g><g id="shape-2c407c4f-2830-80ed-8005-d70d37710bc9"><g class="fills" id="fills-2c407c4f-2830-80ed-8005-d70d37710bc9"><path d="M189.952,87.442L189.976,162.483L125.000,124.942L124.976,49.900Z" style="fill: rgb(49, 222, 185); fill-opacity: 1;"/></g></g></g></g></g></g></g></g></svg>